<mxfile host="app.diagrams.net" modified="2021-09-30T03:44:32.099Z" agent="5.0 (X11; Linux x86_64) AppleWebKit/537.36 (KHTML, like Gecko) Chrome/94.0.4606.61 Safari/537.36" etag="xKgSBJ9D5UoO7oE0KFhH" version="15.3.8" type="github">
  <diagram id="VoBh0Na4pH2S29qxWL9x" name="Page-1">
    <mxGraphModel dx="1422" dy="761" grid="1" gridSize="10" guides="1" tooltips="1" connect="1" arrows="1" fold="1" page="1" pageScale="1" pageWidth="1920" pageHeight="1200" math="0" shadow="0">
      <root>
        <mxCell id="0" />
        <mxCell id="1" parent="0" />
        <mxCell id="mC_1OXXaNfH7KBmy-IzJ-1" value="" style="edgeStyle=orthogonalEdgeStyle;rounded=0;orthogonalLoop=1;jettySize=auto;html=1;startArrow=none;startFill=0;endArrow=classic;endFill=1;" edge="1" parent="1" source="mC_1OXXaNfH7KBmy-IzJ-2" target="mC_1OXXaNfH7KBmy-IzJ-5">
          <mxGeometry relative="1" as="geometry" />
        </mxCell>
        <mxCell id="mC_1OXXaNfH7KBmy-IzJ-2" value="身份者验证" style="ellipse;whiteSpace=wrap;html=1;" vertex="1" parent="1">
          <mxGeometry x="170" y="150" width="120" height="80" as="geometry" />
        </mxCell>
        <mxCell id="mC_1OXXaNfH7KBmy-IzJ-3" value="" style="edgeStyle=orthogonalEdgeStyle;rounded=0;orthogonalLoop=1;jettySize=auto;html=1;startArrow=none;startFill=0;endArrow=classic;endFill=1;exitX=0.5;exitY=0;exitDx=0;exitDy=0;entryX=0;entryY=0.5;entryDx=0;entryDy=0;" edge="1" parent="1" source="mC_1OXXaNfH7KBmy-IzJ-5" target="mC_1OXXaNfH7KBmy-IzJ-6">
          <mxGeometry relative="1" as="geometry" />
        </mxCell>
        <mxCell id="mC_1OXXaNfH7KBmy-IzJ-4" value="" style="edgeStyle=orthogonalEdgeStyle;rounded=0;orthogonalLoop=1;jettySize=auto;html=1;startArrow=none;startFill=0;endArrow=classic;endFill=1;entryX=0;entryY=0.5;entryDx=0;entryDy=0;exitX=0.5;exitY=1;exitDx=0;exitDy=0;" edge="1" parent="1" source="mC_1OXXaNfH7KBmy-IzJ-5" target="mC_1OXXaNfH7KBmy-IzJ-7">
          <mxGeometry relative="1" as="geometry" />
        </mxCell>
        <mxCell id="mC_1OXXaNfH7KBmy-IzJ-5" value="投票" style="ellipse;whiteSpace=wrap;html=1;" vertex="1" parent="1">
          <mxGeometry x="370" y="150" width="120" height="80" as="geometry" />
        </mxCell>
        <mxCell id="mC_1OXXaNfH7KBmy-IzJ-6" value="查看投票结果" style="ellipse;whiteSpace=wrap;html=1;" vertex="1" parent="1">
          <mxGeometry x="520" y="60" width="120" height="80" as="geometry" />
        </mxCell>
        <mxCell id="mC_1OXXaNfH7KBmy-IzJ-7" value="查看投票统计结果" style="ellipse;whiteSpace=wrap;html=1;" vertex="1" parent="1">
          <mxGeometry x="520" y="240" width="120" height="80" as="geometry" />
        </mxCell>
      </root>
    </mxGraphModel>
  </diagram>
</mxfile>
